<?xml version="1.0" encoding="UTF-8" standalone="no"?>
<svg
   xmlns:dc="http://purl.org/dc/elements/1.1/"
   xmlns:cc="http://creativecommons.org/ns#"
   xmlns:rdf="http://www.w3.org/1999/02/22-rdf-syntax-ns#"
   xmlns:svg="http://www.w3.org/2000/svg"
   xmlns="http://www.w3.org/2000/svg"
   xmlns:sodipodi="http://sodipodi.sourceforge.net/DTD/sodipodi-0.dtd"
   xmlns:inkscape="http://www.inkscape.org/namespaces/inkscape"
   version="1.0"
   width="1280.000000pt"
   height="454.000000pt"
   viewBox="0 0 1280.000000 454.000000"
   preserveAspectRatio="xMidYMid meet"
   id="svg54"
   sodipodi:docname="logo.svg"
   inkscape:version="0.92.5 (2060ec1f9f, 2020-04-08)">
  <metadata
     id="metadata60">
    <rdf:RDF>
      <cc:Work
         rdf:about="">
        <dc:format>image/svg+xml</dc:format>
        <dc:type
           rdf:resource="http://purl.org/dc/dcmitype/StillImage" />
        <dc:title></dc:title>
      </cc:Work>
    </rdf:RDF>
  </metadata>
  <defs
     id="defs58" />
  <sodipodi:namedview
     pagecolor="#ffffff"
     bordercolor="#666666"
     borderopacity="1"
     objecttolerance="10"
     gridtolerance="10"
     guidetolerance="10"
     inkscape:pageopacity="0"
     inkscape:pageshadow="2"
     inkscape:window-width="1294"
     inkscape:window-height="704"
     id="namedview56"
     showgrid="false"
     inkscape:zoom="0.28417969"
     inkscape:cx="853.48651"
     inkscape:cy="793.80226"
     inkscape:window-x="72"
     inkscape:window-y="27"
     inkscape:window-maximized="1"
     inkscape:current-layer="g52" />
  <g
     transform="translate(0.000000,454.000000) scale(0.100000,-0.100000)"
     fill="#000000"
     stroke="none"
     id="g52">
    <path
       d="m 5552.7835,4488.6083 c -830,-111 -1499,-739 -1655,-1555 -8,-47 -18,-95 -21,-107 l -4,-23 h 299 299 l 7,53 c 65,516 248,917 551,1207 180,172 389,278 614,311 129,18 388,6 522,-25 281,-66 503,-188 683,-377 172,-180 262,-369 316,-664 32,-170 48,-239 62,-252 24,-23 112,-20 123,5 4,9 12,278 17,597 12,757 13,714 -7,759 -16,38 -16,39 -63,33 -57,-6 -73,-25 -73,-88 0,-47 -40,-140 -77,-181 -37,-42 -125,-18 -348,95 -229,116 -474,188 -727,216 -127,14 -398,12 -518,-4 z"
       id="path2"
       style="fill:#033e50;fill-opacity:1"
       inkscape:connector-curvature="0" />
    <path
       d="m 116.78351,4464.6083 c -32.000004,-5 -54.000004,-32 -54.000004,-66 0,-26 5,-33 35.000001,-44 19.000003,-7 76.000003,-16 126.999993,-22 135,-14 188,-32 236,-79 45,-45 63,-90 88,-220 13,-70 17,-183 21,-657 l 5,-573 h 281 282 v 537 c 0,471 2,552 18,653 42,261 94,316 326,339 56,6 117,18 137,26 32,13 35,18 29,42 -3,16 -15,37 -25,47 -18,19 -44,19 -752,20 -404,1 -742.99999,-1 -753.99999,-3 z"
       id="path4"
       style="fill:#033e50;fill-opacity:1"
       inkscape:connector-curvature="0" />
    <path
       d="m 8069.7835,4456.6083 c -4,-3 -7,-23 -7,-44 0,-35 4,-41 38,-57 39,-20 116,-37 217,-47 89,-10 120,-22 158,-64 79,-87 87,-160 88,-811 0,-300 3,-563 7,-585 l 7,-40 h 60 60 l 7,40 c 5,22 7,252 6,510 -3,427 -1,475 15,528 10,31 21,57 25,57 8,0 43,-90 168,-425 146,-392 237,-613 280,-677 l 24,-38 h 280 c 231,0 280,2 280,14 0,62 -489,1378 -591,1591 l -24,50 -546,3 c -300,1 -549,-1 -552,-5 z"
       id="path6"
       style="fill:#033e50;fill-opacity:1"
       inkscape:connector-curvature="0" />
    <path
       d="m 11903.783,4441.6083 c -5,-13 -20,-54 -34,-93 -14,-38 -73,-196 -132,-350 -58,-154 -148,-392 -200,-530 -52,-137 -128,-340 -169,-449 -42,-110 -73,-202 -70,-205 3,-3 30,-6 61,-6 47,0 58,4 79,28 13,15 30,51 39,80 8,28 58,167 109,307 52,140 113,309 136,375 50,139 130,314 152,332 13,11 15,-49 21,-549 5,-442 9,-563 19,-570 7,-4 138,-8 291,-8 h 277 v 603 c 0,653 3,695 55,783 42,72 131,118 288,149 26,5 27,8 27,65 v 60 h -470 -470 z"
       id="path8"
       style="fill:#033e50;fill-opacity:1"
       inkscape:connector-curvature="0" />
    <path
       d="m 3337.7835,2346.6083 c -11,-2 -30,-6 -43,-9 -50,-10 -62,-37 -62,-137 0,-107 11,-131 68,-147 48,-13 146,-13 194,0 36,11 68,42 68,67 0,9 -15,13 -43,13 -36,0 -46,-4 -55,-24 -16,-35 -91,-43 -129,-13 -20,15 -17,181 3,201 25,26 91,21 118,-9 18,-19 33,-25 65,-25 46,0 50,6 21,43 -28,36 -131,56 -205,40 z"
       id="path10"
       style="fill:#242223;fill-opacity:1"
       inkscape:connector-curvature="0" />
    <path
       d="m 3726.7835,2344.6083 c -23,-4 -53,-15 -68,-24 -25,-17 -26,-20 -26,-122 0,-118 5,-127 73,-146 56,-15 194,-7 233,14 38,19 44,38 44,139 0,100 -18,124 -105,138 -66,11 -89,11 -151,1 z m 146,-51 c 16,-16 20,-33 20,-94 0,-41 -3,-81 -6,-90 -9,-25 -77,-39 -124,-26 l -40,11 v 99 c 0,114 4,119 83,120 34,0 52,-5 67,-20 z"
       id="path12"
       style="fill:#242223;fill-opacity:1"
       inkscape:connector-curvature="0" />
    <path
       d="m 4597.7835,2344.6083 c -68,-12 -85,-26 -85,-71 0,-34 4,-42 31,-55 17,-9 63,-23 101,-31 93,-20 108,-28 108,-64 0,-25 -5,-31 -39,-40 -48,-13 -99,-3 -114,21 -9,14 -24,19 -54,19 -49,0 -53,-11 -19,-45 29,-29 90,-39 191,-33 96,6 125,24 125,78 0,51 -24,68 -137,92 -92,19 -113,30 -113,59 0,24 30,39 80,39 48,0 80,-14 80,-35 0,-17 75,-22 85,-5 9,15 -14,50 -39,60 -34,13 -155,20 -201,11 z"
       id="path14"
       style="fill:#242223;fill-opacity:1"
       inkscape:connector-curvature="0" />
    <path
       d="m 6332.7835,2344.6083 c -86,-18 -105,-58 -59,-123 l 20,-27 -40,-11 c -22,-6 -47,-18 -56,-27 -23,-22 -15,-63 18,-87 25,-18 42,-21 130,-20 56,0 116,2 132,2 17,1 59,0 95,-4 l 65,-5 -37,26 c -42,29 -44,32 -23,59 8,11 15,30 15,43 0,20 -5,23 -39,23 -35,0 -39,-3 -45,-31 l -6,-30 -30,18 c -78,45 -125,89 -128,117 -4,33 10,46 50,46 39,0 58,-10 58,-31 0,-16 8,-19 45,-19 36,0 45,3 45,18 -1,40 -33,59 -115,66 -33,2 -76,1 -95,-3 z m 62,-212 c 54,-35 58,-44 26,-53 -101,-27 -212,39 -124,74 35,14 47,12 98,-21 z"
       id="path16"
       style="fill:#242223;fill-opacity:1"
       inkscape:connector-curvature="0" />
    <path
       d="m 9473.7835,2342.6083 c -24,-5 -55,-19 -68,-31 -22,-21 -23,-28 -21,-122 3,-95 4,-100 31,-120 25,-18 42,-21 137,-21 95,0 112,3 137,21 24,18 28,29 31,78 l 3,56 h -86 c -69,0 -85,-3 -85,-15 0,-11 11,-15 40,-15 39,0 40,-1 40,-34 0,-44 -22,-61 -81,-60 -72,1 -79,11 -79,115 0,102 10,119 71,119 47,0 79,-14 79,-35 0,-11 13,-15 50,-15 56,0 60,7 28,44 -35,40 -130,54 -227,35 z"
       id="path18"
       style="fill:#242223;fill-opacity:1"
       inkscape:connector-curvature="0" />
    <path
       d="m 4072.7835,2193.6083 v -150 h 40 39 l 3,102 3,103 88,-103 c 84,-97 90,-102 128,-102 h 39 v 150 150 h -45 -44 l -3,-102 -3,-103 -84,103 c -80,98 -85,102 -122,102 h -39 z"
       id="path20"
       style="fill:#242223;fill-opacity:1"
       inkscape:connector-curvature="0" />
    <path
       d="m 4912.7835,2223.6083 c 0,-114 1,-122 24,-145 13,-13 40,-27 61,-31 58,-11 180,1 209,20 26,16 26,18 26,146 v 130 h -45 -44 l -3,-127 -3,-127 -37,-9 c -26,-6 -45,-5 -65,5 l -28,13 -3,123 -3,122 h -44 -45 z"
       id="path22"
       style="fill:#242223;fill-opacity:1"
       inkscape:connector-curvature="0" />
    <path
       d="m 5322.7835,2193.6083 v -150 h 146 c 133,0 145,1 142,18 -3,14 -17,17 -101,20 l -97,3 v 129 130 h -45 -45 z"
       id="path24"
       style="fill:#242223;fill-opacity:1"
       inkscape:connector-curvature="0" />
    <path
       d="m 5612.7835,2328.6083 c 0,-12 13,-15 60,-15 h 60 v -135 -135 h 45 45 v 135 135 h 60 c 47,0 60,3 60,15 0,13 -25,15 -165,15 -140,0 -165,-2 -165,-15 z"
       id="path26"
       style="fill:#242223;fill-opacity:1"
       inkscape:connector-curvature="0" />
    <path
       d="m 6844.7835,2331.6083 c 3,-8 28,-14 66,-16 l 62,-3 v -134 -135 h 45 45 v 135 134 l 62,3 c 38,2 63,8 66,16 3,9 -36,12 -173,12 -137,0 -176,-3 -173,-12 z"
       id="path28"
       style="fill:#242223;fill-opacity:1"
       inkscape:connector-curvature="0" />
    <path
       d="m 7255.7835,2194.6083 v -151 h 48 49 v 65 65 h 38 c 36,0 41,-4 83,-65 44,-64 44,-65 92,-65 54,0 54,-3 -5,76 -21,28 -38,53 -38,56 0,3 14,11 30,18 55,23 67,81 24,121 -24,23 -33,24 -173,27 l -148,4 z m 235,103 c 24,-17 29,-53 10,-72 -7,-7 -40,-12 -80,-12 h -68 v 50 50 h 58 c 36,0 66,-6 80,-16 z"
       id="path30"
       style="fill:#242223;fill-opacity:1"
       inkscape:connector-curvature="0" />
    <path
       d="m 7732.7835,2201.6083 c -41,-77 -76,-145 -78,-150 -2,-4 17,-8 42,-8 43,0 48,2 63,35 l 17,35 h 77 78 l 12,-35 c 12,-33 15,-35 62,-35 27,0 47,3 45,8 -1,4 -37,71 -78,150 l -75,142 h -45 -45 z m 154,11 c 14,-33 26,-62 26,-65 0,-2 -27,-4 -60,-4 -33,0 -60,2 -60,4 0,13 54,126 60,126 4,0 19,-27 34,-61 z"
       id="path32"
       style="fill:#242223;fill-opacity:1"
       inkscape:connector-curvature="0" />
    <path
       d="m 8122.7835,2193.6083 v -150 h 45 45 v 150 150 h -45 -45 z"
       id="path34"
       style="fill:#242223;fill-opacity:1"
       inkscape:connector-curvature="0" />
    <path
       d="m 8312.7835,2193.6083 v -150 h 40 40 v 101 c 0,55 4,99 9,97 4,-1 45,-47 91,-100 78,-93 84,-98 121,-98 h 39 v 151 150 l -42,-3 -43,-3 -1,-93 c -1,-51 -3,-95 -6,-97 -2,-3 -41,40 -87,95 -79,96 -84,100 -122,100 h -39 z"
       id="path36"
       style="fill:#242223;fill-opacity:1"
       inkscape:connector-curvature="0" />
    <path
       d="m 8752.7835,2193.6083 v -150 h 45 45 v 150 150 h -45 -45 z"
       id="path38"
       style="fill:#242223;fill-opacity:1"
       inkscape:connector-curvature="0" />
    <path
       d="m 8942.7835,2193.6083 v -150 h 40 40 v 100 c 0,55 3,100 8,100 4,0 45,-45 91,-100 79,-95 86,-100 122,-100 h 39 v 150 150 h -40 -40 v -100 c 0,-55 -4,-100 -8,-100 -4,0 -44,45 -88,99 -77,98 -80,100 -121,100 l -43,1 z"
       id="path40"
       style="fill:#242223;fill-opacity:1"
       inkscape:connector-curvature="0" />
    <path
       d="m 566.7835,1657.6083 c -4,-15 -4,-222 -1,-459 8,-590.00003 -7,-795.00003 -69,-917.00003 -38,-74 -132,-118 -289,-133 -37.99999,-4 -86.99999,-14 -107.999993,-23 -36.000001,-14 -38.000001,-17 -33.000001,-46.000004 13,-63 -43,-59 872.999994,-65 1163,-7.9999998 2173,-6.9999998 2266,3 l 79,8 -4,638.000004 c -1,351.00003 -7,642.00003 -11,646.00003 -5,5 -34,9 -65,9 h -57 l -12,-38 c -18,-54 -39,-174 -63,-362.00003 -11,-88 -30,-194 -42,-235 -95,-342 -348,-504 -844,-540 -181,-13 -651,-13 -732,0 -90,15 -160,49 -210,104 -99,108 -104,145 -100,843.00003 2,314 0,574 -4,578 -4,4 -133,10 -287,13 l -280,5 z"
       id="path42"
       style="fill:#033e50;fill-opacity:1"
       inkscape:connector-curvature="0" />
    <path
       d="m 3872.7835,1611.6083 c 0,-195 143,-557 335,-848.00003 122,-185 352,-397 564,-520 431,-249.0000038 976,-330.000004 1446,-213.000004 235,58 354,112.000004 567,257.000004 87,58 179,116 205,127 143,61 217,-8 232,-218 5,-60 14,-119.000004 20,-131.000004 6,-12 29,-26 52,-32 77,-21 73,-60 65,600.000004 -3,322 -9,654.00003 -13,739.00003 l -6,153 -44,-5 c -83,-9 -99,-43 -118,-255 -25,-290.00003 -97,-488.00003 -253,-699.00003 -237,-318 -682,-493.000004 -1172,-461 -278,18 -533,139 -745,353 -130,131 -219,256 -304,430 -80,162.00003 -118,275.00003 -190,578.00003 l -53,217 h -294 -294 z"
       id="path44"
       style="fill:#033e50;fill-opacity:1"
       inkscape:connector-curvature="0" />
    <path
       d="m 8567.7835,1633.6083 c -4,-28 -5,-286 -4,-573 4,-577.00003 4,-586.00003 -57,-715.00003 -58,-121 -156,-179 -331,-197 -85,-8 -102,-18 -105,-65.000004 l -3,-35 80,-13 c 97,-15 799,-27.9999998 968,-17 145,9 167,21 144,77 -8,19.000004 -21,39.000004 -28,44.000004 -8,4 -63,11 -124,15 -92,5 -121,11 -175,36 -120,55 -164,113 -201,269 -24,101 -28,242 -19,804.00003 2,173 1,339 -4,368 l -8,52 h -63 -63 z"
       id="path46"
       style="fill:#033e50;fill-opacity:1"
       inkscape:connector-curvature="0" />
    <path
       d="m 9652.7835,1679.6083 c 0,-34 131,-382 333,-886.00003 85.0005,-212 170.9995,-437 190.9995,-499 42,-132 74,-196.000004 121,-241.000004 l 33,-32 39,18 c 34,17 41,27 62,89.000004 33,97 156,426 236,630 210,538.00003 340,899.00003 330,915.00003 -4,6 -33,10 -65,10 h -58 l -32,-82 c -17,-46 -77,-207 -132,-358 -92,-252.00003 -147,-368.00003 -168,-355.00003 -7,4 -31,63 -199,490.00003 -50,127 -99,247 -108,268 l -16,37 h -283.9995 c -155,0 -283,-2 -283,-4 z"
       id="path48"
       style="fill:#033e50;fill-opacity:1"
       inkscape:connector-curvature="0" />
    <path
       d="m 11897.783,1566.6083 c -5,-65 -5,-314 -2,-553 3,-244.00003 1,-471.00003 -4,-516.00003 -13,-121 -42,-203 -89,-257 -50,-56 -101,-75 -236,-86 -104,-9 -144,-24 -165,-63.000004 -8,-15 -4,-25 21,-50 l 31,-31 127,6 c 70,4 385,7 700,7 h 572 v 60 c 0,57.000004 -1,60.000004 -27,65.000004 -143,29 -207,59 -266,124 -70,77 -70,78 -78,726 -4,319.00003 -10,594.00003 -13,610.00003 -4,17 -9,40 -12,53 l -4,22 h -274 -274 z"
       id="path50"
       style="fill:#033e50;fill-opacity:1"
       inkscape:connector-curvature="0" />
  </g>
</svg>
